<svg width="111" height="111" viewBox="0 0 111 111" fill="none" xmlns="http://www.w3.org/2000/svg">
<circle cx="55.5" cy="55.5" r="50.5" fill="#7B7B7B" stroke="#E3E3E3" stroke-width="10"/>
<path d="M41.5739 72V65.9318L54.3068 54.7841C55.2614 53.9205 56.0739 53.1307 56.7443 52.4148C57.4148 51.6875 57.9261 50.9602 58.2784 50.233C58.6307 49.4943 58.8068 48.6932 58.8068 47.8295C58.8068 46.8636 58.5966 46.0398 58.1761 45.358C57.7557 44.6648 57.1761 44.1307 56.4375 43.7557C55.6989 43.3807 54.8523 43.1932 53.8977 43.1932C52.9318 43.1932 52.0852 43.392 51.358 43.7898C50.6307 44.1761 50.0625 44.7386 49.6534 45.4773C49.2557 46.2159 49.0568 47.1136 49.0568 48.1705H41.0625C41.0625 45.7955 41.5966 43.7443 42.6648 42.017C43.733 40.2898 45.233 38.9602 47.1648 38.0284C49.108 37.0852 51.3636 36.6136 53.9318 36.6136C56.5795 36.6136 58.8807 37.0568 60.8352 37.9432C62.7898 38.8295 64.3011 40.0682 65.3693 41.6591C66.4489 43.2386 66.9886 45.0739 66.9886 47.1648C66.9886 48.4943 66.7216 49.8125 66.1875 51.1193C65.6534 52.4261 64.6932 53.8693 63.3068 55.4489C61.9318 57.0284 59.9773 58.9205 57.4432 61.125L53.267 64.9773V65.1989H67.4148V72H41.5739Z" fill="white"/>
</svg>
