<svg width="111" height="111" viewBox="0 0 111 111" fill="none" xmlns="http://www.w3.org/2000/svg">
<circle cx="55.5" cy="55.5" r="50.5" fill="#FF6F15" stroke="#F9904F" stroke-width="10"/>
<path d="M54.8523 71.4773C52.1932 71.4773 49.8352 71.0227 47.7784 70.1136C45.733 69.1932 44.1193 67.9261 42.9375 66.3125C41.7557 64.6989 41.1534 62.8409 41.1307 60.7386H49.6193C49.6534 61.5 49.8977 62.1761 50.3523 62.767C50.8068 63.3466 51.4261 63.8011 52.2102 64.1307C52.9943 64.4602 53.8864 64.625 54.8864 64.625C55.8864 64.625 56.767 64.4489 57.5284 64.0966C58.3011 63.733 58.9034 63.2386 59.3352 62.6136C59.767 61.9773 59.9773 61.25 59.9659 60.4318C59.9773 59.6136 59.7443 58.8864 59.267 58.25C58.7898 57.6136 58.1136 57.1193 57.2386 56.767C56.375 56.4148 55.3523 56.2386 54.1705 56.2386H50.7784V50.2386H54.1705C55.2045 50.2386 56.1136 50.0682 56.8977 49.7273C57.6932 49.3864 58.3125 48.9091 58.7557 48.2955C59.1989 47.6705 59.4148 46.9545 59.4034 46.1477C59.4148 45.3636 59.2273 44.6761 58.8409 44.0852C58.4659 43.483 57.9375 43.017 57.2557 42.6875C56.5852 42.358 55.8068 42.1932 54.9205 42.1932C53.9886 42.1932 53.142 42.358 52.3807 42.6875C51.6307 43.017 51.0341 43.483 50.5909 44.0852C50.1477 44.6875 49.9148 45.3864 49.892 46.1818H41.8295C41.8523 44.1023 42.4318 42.2727 43.5682 40.6932C44.7045 39.1023 46.25 37.858 48.2045 36.9602C50.1705 36.0625 52.4091 35.6136 54.9205 35.6136C57.4205 35.6136 59.6193 36.0511 61.517 36.9261C63.4148 37.8011 64.892 38.9943 65.9489 40.5057C67.0057 42.0057 67.5341 43.7045 67.5341 45.6023C67.5455 47.5682 66.9034 49.1875 65.608 50.4602C64.3239 51.733 62.6705 52.517 60.6477 52.8125V53.0852C63.3523 53.4034 65.392 54.2784 66.767 55.7102C68.1534 57.142 68.8409 58.9318 68.8295 61.0795C68.8295 63.1023 68.233 64.8977 67.0398 66.4659C65.858 68.0227 64.2102 69.25 62.0966 70.1477C59.9943 71.0341 57.5795 71.4773 54.8523 71.4773Z" fill="white"/>
</svg>
